#!OML:ASF H:\ManfredETheater\Project 1\Capture day 1\Session 1\subject.ASF
:FULLY-SPECIFIED
:DEGREES
265
root 2.76561 16.0847 -13.5223 -116.215 26.217 190.436
lowerback 47.9624 2.44015 -9.4764
upperback 12.0469 1.61191 1.17702
thorax -6.6718 1.43803 4.9485
lowerneck -1.48314 -3.09886 0.973393
upperneck -28.2395 -2.58883 2.36262
head -8.51206 -0.603124 0.664485
rclavicle 0 -4.29375e-014
rhumerus 76.2756 36.361 -9.5431
rradius 64.982
rwrist -11.4406
rhand 29.9409 -4.8803
rfingers 7.12502
rthumb 53.6538 -23.9497
lclavicle 0 -4.29375e-014
lhumerus 42.1442 -0.0148176 55.2153
lradius 14.0952
lwrist -16.3618
lhand -36.1667 20.4274
lfingers 7.12502
lthumb -9.27067 50.2036
rfemur -100.725 -8.54081 47.9641
rtibia 48.0585
rfoot -7.89793 1.02259
rtoes -47.1993
lfemur -30.3063 -5.16823 -8.01317
ltibia 54.0585
lfoot 12.5799 -12.3038
ltoes 0.261245
266
root 2.98973 16.0623 -13.9077 -117.721 26.2455 189.659
lowerback 47.9789 2.01331 -9.09608
upperback 12.0442 1.317 1.08848
thorax -6.65798 1.33876 4.7952
lowerneck -1.18728 -3.06526 1.8009
upperneck -28.0281 -2.63446 1.77199
head -8.51752 -0.681314 0.331039
rclavicle 2.8625e-014 -1.66979e-014
rhumerus 75.9523 35.6192 -10.7801
rradius 64.6735
rwrist -8.51755
rhand 21.5427 -3.23864
rfingers 7.12502
rthumb 45.9694 -26.3459
lclavicle 2.8625e-014 -1.66979e-014
lhumerus 39.8983 -3.94747 53.9487
lradius 14.4566
lwrist -13.2029
lhand -28.7189 18.6303
lfingers 7.12502
lthumb -2.08025 48.5999
rfemur -99.3102 -8.8534 44.8221
rtibia 47.847
rfoot -6.62124 -0.773048
rtoes -45.6348
lfemur -29.6544 -4.9131 -9.78457
ltibia 57.7017
lfoot 11.5256 -14.7889
ltoes -0.490628
267
root 3.20857 16.0425 -14.292 -119.349 25.956 188.959
lowerback 48.1789 1.55106 -8.49516
upperback 11.9921 1.07791 1.09128
thorax -6.74881 1.27057 4.60809
lowerneck -0.921096 -3.05227 2.6229
upperneck -27.8418 -2.69589 1.194
head -8.52666 -0.762142 0.00381292
rclavicle -6.20208e-014 -6.20208e-014
rhumerus 75.2875 34.898 -12.6842
rradius 63.5914
rwrist -5.86206
rhand 13.9039 -2.1943
rfingers 7.12502
rthumb 38.8189 -27.766
lclavicle -6.20208e-014 -6.20208e-014
lhumerus 37.834 -8.53813 52.5632
lradius 15.0545
lwrist -9.42742
lhand -20.4059 16.5406
lfingers 7.12502
lthumb 5.94793 46.4371
rfemur -97.7313 -9.27326 41.6137
rtibia 48.9446
rfoot -5.90016 -3.18265
rtoes -43.8759
lfemur -29.1594 -4.72499 -11.1895
ltibia 61.7783
lfoot 10.7845 -16.7532
ltoes -0.544506
268
root 3.42258 16.022 -14.6758 -120.948 25.3403 188.449
lowerback 48.4875 1.0668 -7.68909
upperback 11.8792 0.905472 1.19143
thorax -6.94282 1.23382 4.39944
lowerneck -0.691319 -3.04625 3.43225
upperneck -27.7328 -2.75123 0.6273
head -8.55661 -0.831346 -0.318676
rclavicle -1.43125e-014 4.05521e-014
rhumerus 74.3093 34.1981 -15.196
rradius 61.9116
rwrist -3.55645
rhand 7.39938 -1.52479
rfingers 7.12502
rthumb 32.6558 -28.597
lclavicle -1.43125e-014 4.05521e-014
lhumerus 35.9436 -13.6212 51.2304
lradius 15.9091
lwrist -5.39724
lhand -11.0956 14.6477
lfingers 7.12502
lthumb 14.9284 44.0897
rfemur -95.9764 -9.68252 38.7751
rtibia 50.9063
rfoot -5.78203 -5.72928
rtoes -42.0649
lfemur -28.9249 -4.51334 -12.1549
ltibia 66.278
lfoot 10.1561 -18.1462
ltoes -0.272464
269
root 3.63319 15.9988 -15.0599 -122.38 24.4342 188.212
lowerback 48.8232 0.586655 -6.7235
upperback 11.6985 0.811745 1.3866
thorax -7.2307 1.22848 4.18557
lowerneck -0.540552 -3.0413 4.19941
upperneck -27.7018 -2.79125 0.0883739
head -8.59864 -0.882073 -0.627747
rclavicle -6.36111e-015 1.82882e-014
rhumerus 72.9856 33.4974 -18.3303
rradius 59.8777
rwrist -1.49537
rhand 2.29917 -1.13264
rfingers 7.12502
rthumb 27.7907 -29.098
lclavicle -6.36111e-015 1.82882e-014
lhumerus 34.1287 -18.8857 50.228
lradius 17.0516
lwrist -1.65906
lhand -1.39372 12.9857
lfingers 7.12502
lthumb 24.2548 41.4715
rfemur -94.0417 -10.0001 36.573
rtibia 53.237
rfoot -6.21897 -8.06516
rtoes -40.4143
lfemur -29.0575 -4.1909 -12.6506
ltibia 71.1424
lfoot 9.38989 -18.8847
ltoes 0.164998
270
root 3.84265 15.9733 -15.4455 -123.546 23.2986 188.273
lowerback 49.1053 0.138777 -5.66486
upperback 11.4541 0.800681 1.66283
thorax -7.58924 1.25133 3.98257
lowerneck -0.521351 -3.02882 4.89701
upperneck -27.7183 -2.80459 -0.399954
head -8.63115 -0.908741 -0.912751
rclavicle 1.90833e-014 -5.40694e-014
rhumerus 71.2923 32.7379 -22.0494
rradius 57.7504
rwrist 0.511299
rhand -1.39449 -0.977934
rfingers 7.12502
rthumb 24.254 -29.4639
lclavicle 1.90833e-014 -5.40694e-014
lhumerus 32.1725 -23.8732 49.912
lradius 18.5081
lwrist 1.16882
lhand 7.83883 11.4186
lfingers 7.12502
lthumb 33.0738 38.4032
rfemur -91.9516 -10.2008 35.1175
rtibia 55.5059
rfoot -7.023 -10.2352
rtoes -39.4489
lfemur -29.6425 -3.72149 -12.6908
ltibia 76.2677
lfoot 8.25017 -18.9256
ltoes 0.239922
271
root 4.05509 15.9508 -15.8352 -124.426 22.0443 188.623
lowerback 49.3237 -0.219553 -4.6406
upperback 11.1452 0.875154 1.98989
thorax -8.01134 1.30119 3.81583
lowerneck -0.617139 -2.99956 5.51778
upperneck -27.7955 -2.77554 -0.818677
head -8.66042 -0.905266 -1.16719
rclavicle -2.54444e-014 5.64548e-014
rhumerus 69.2369 31.8543 -26.2603
rradius 55.7623
rwrist 2.68581
rhand -3.81777 -1.02822
rfingers 7.12502
rthumb 21.9289 -29.8054
lclavicle -2.54444e-014 5.64548e-014
lhumerus 29.8597 -27.5266 51.1866
lradius 19.5601
lwrist 1.86899
lhand 15.81 9.38319
lfingers 7.12502
lthumb 40.6136 34.4212
rfemur -89.6894 -10.2665 34.3591
rtibia 57.4087
rfoot -8.21557 -12.0681
rtoes -38.604
lfemur -30.6624 -3.01678 -12.3703
ltibia 81.4754
lfoot 6.62885 -18.3548
ltoes -0.353343
272
root 4.27417 15.9367 -16.2318 -125.038 20.7881 189.208
lowerback 49.4781 -0.44231 -3.77649
upperback 10.7801 1.02282 2.32161
thorax -8.48335 1.37251 3.69922
lowerneck -0.829141 -2.9549 6.07915
upperneck -27.9026 -2.70699 -1.16031
head -8.6755 -0.87737 -1.39083
rclavicle -1.27222e-014 -2.62396e-014
rhumerus 66.8685 30.7962 -30.7838
rradius 54.0834
rwrist 5.12276
rhand -5.39224 -1.20134
rfingers 7.12502
rthumb 20.4165 -30.148
lclavicle -1.27222e-014 -2.62396e-014
lhumerus 26.9235 -29.8162 53.8661
lradius 20.3487
lwrist 0.821069
lhand 21.7694 6.95943
lfingers 7.12502
lthumb 46.1797 29.9787
rfemur -87.2596 -10.1846 34.1517
rtibia 58.7699
rfoot -9.64773 -13.5972
rtoes -38.5925
lfemur -32.0992 -2.08932 -11.811
ltibia 86.6068
lfoot 4.61017 -17.2145
ltoes -1.3286
273
root 4.50285 15.9352 -16.6372 -125.446 19.6192 189.97
lowerback 49.6114 -0.496736 -3.15517
upperback 10.38 1.24185 2.62519
thorax -8.98864 1.46723 3.63591
lowerneck -1.18599 -2.90073 6.50408
upperneck -28.0055 -2.599 -1.35018
head -8.6566 -0.824611 -1.54436
rclavicle -7.95139e-015 -2.34566e-014
rhumerus 64.2692 29.5123 -35.3338
rradius 52.812
rwrist 7.72951
rhand -6.58415 -1.42061
rfingers 7.12502
rthumb 19.2707 -30.4858
lclavicle -7.95139e-015 -2.34566e-014
lhumerus 23.3541 -30.6001 57.7344
lradius 20.8941
lwrist -1.56242
lhand 25.0919 4.38436
lfingers 7.12502
lthumb 49.2456 25.9944
rfemur -84.63 -9.98026 34.3632
rtibia 59.5423
rfoot -11.0812 -14.9494
rtoes -39.1994
lfemur -33.8813 -0.945833 -11.1306
ltibia 91.5014
lfoot 2.33371 -15.6283
ltoes -2.41608
274
root 4.74246 15.9472 -17.0519 -125.719 18.6249 190.841
lowerback 49.7517 -0.368647 -2.85213
upperback 9.96545 1.50666 2.8505
thorax -9.50809 1.57828 3.61702
lowerneck -1.65932 -2.84189 6.81685
upperneck -28.0948 -2.45696 -1.38651
head -8.60691 -0.752958 -1.62975
rclavicle 3.18055e-015 -3.45885e-014
rhumerus 61.5496 28.0272 -39.6448
rradius 51.9428
rwrist 10.2317
rhand -7.86749 -1.62163
rfingers 7.12502
rthumb 18.0363 -30.8053
lclavicle 3.18055e-015 -3.45885e-014
lhumerus 19.3545 -29.9522 62.2447
lradius 21.3271
lwrist -4.5276
lhand 25.5138 2.24818
lfingers 7.12502
lthumb 49.6325 23.6618
rfemur -81.7863 -9.68212 34.8398
rtibia 59.7574
rfoot -12.3691 -16.1711
rtoes -40.0656
lfemur -35.949 0.37155 -10.4608
ltibia 96.046
lfoot -0.0233538 -13.7423
ltoes -3.1369
